# xmcd
#
# Track frame offsets: 
#        150
#        20967
#        38085
#        57807
#        73187
#        88005
#        100255
#        117532
#        139147
#        156310
#        172325
#        189155
#        206955
#        226602
#
# Disc length: 3282 seconds
#
# Revision: 3
# Processed by: cddbd v1.5.2PL0 Copyright (c) Steve Scherf et al.
# Submitted via: ExactAudioCopy v0.90b4
#
DISCID=cc0cd00e
DTITLE=Willeke Alberti - 'n Beetje Mazzel
DYEAR=1993
DGENRE=Pop
TTITLE0=Ome Jan
TTITLE1=Geboortebericht
TTITLE2=Een Beetje Mazzel
TTITLE3=De Liefde Van Je Vrienden
TTITLE4=Voortdurend Rood
TTITLE5=Een Gewoon Verhaal
TTITLE6=Laat Me Leven
TTITLE7=Waarom Belde Je Vannacht
TTITLE8=Die Ouwe Versleten Jas
TTITLE9=Ik Zou Niet Anders Kunnen
TTITLE10=Die Kroeg Op De Hoek (Duet Met Gordon)
TTITLE11=Was Jij Maar Hier
TTITLE12=Het Wijnfeest
TTITLE13=Gebabbel (Duet Met Paul De Leeuw)
EXTD=
EXTT0=
EXTT1=
EXTT2=
EXTT3=
EXTT4=
EXTT5=
EXTT6=
EXTT7=
EXTT8=
EXTT9=
EXTT10=
EXTT11=
EXTT12=
EXTT13=
PLAYORDER=
